<svg width="959" height="341" viewBox="0 0 959 341" fill="none" xmlns="http://www.w3.org/2000/svg">
<g filter="url(#filter0_ddi_11_2)">
<path d="M440.275 201.587C420.407 201.587 408.41 194.097 404.602 184.639C403.776 182.734 403.396 180.767 403.396 178.862C403.396 173.022 407.585 169.087 413.488 169.087C417.995 169.087 421.042 170.674 424.025 175.244C427.136 180.957 433.293 183.369 440.656 183.369C449.733 183.369 455.637 179.307 455.637 173.721C455.637 168.643 451.765 166.04 440.91 163.945L431.452 162.168C413.234 158.74 403.713 149.79 403.713 135.825C403.713 118.179 419.011 106.816 440.085 106.816C457.604 106.816 470.427 113.545 474.87 125.161C475.505 126.748 475.822 128.271 475.822 130.176C475.822 135.571 471.887 139.189 466.047 139.253C460.969 139.253 457.795 137.412 455.065 132.969C452.082 127.256 447.004 125.034 440.275 125.034C431.833 125.034 426.882 128.843 426.882 134.238C426.882 139.062 431.008 141.729 440.974 143.633L450.368 145.41C469.919 149.155 478.806 157.09 478.806 171.499C478.806 189.907 464.396 201.587 440.275 201.587ZM521.081 201.65C499.436 201.65 485.979 188.003 485.979 165.405C485.979 143.062 499.436 129.224 520.954 129.224C535.236 129.224 546.916 135.635 551.169 145.601C552.058 147.505 552.565 149.6 552.565 151.313C552.565 156.709 548.059 159.819 542.917 159.819C538.601 159.819 535.871 158.105 533.713 154.487C530.476 148.838 526.857 146.362 521.779 146.362C513.527 146.362 508.767 153.154 508.767 165.405C508.767 177.783 513.4 184.575 521.652 184.575C527.365 184.575 530.856 181.528 533.459 177.466C536.379 173.213 538.854 171.245 543.615 171.245C548.63 171.245 553.01 174.482 553.01 180.068C553.01 181.782 552.565 183.687 551.423 185.908C546.853 195.239 534.665 201.65 521.081 201.65ZM573.64 201.46C567.038 201.46 562.341 197.651 562.341 189.78V118.369C562.341 111.133 566.403 106.943 573.386 106.943C580.368 106.943 584.367 111.133 584.367 118.433V143.887H584.812C588.366 134.619 595.92 129.541 606.457 129.541C621.882 129.541 630.451 139.316 630.451 155.63V189.78C630.451 197.651 625.817 201.46 619.216 201.46C612.614 201.46 607.98 197.651 607.98 189.78V160.518C607.98 152.71 604.108 147.886 596.682 147.886C589.128 147.886 584.875 153.281 584.875 161.025V189.78C584.875 197.651 580.178 201.46 573.64 201.46ZM674.313 201.65C652.541 201.65 638.957 188.447 638.957 165.405C638.957 142.808 652.858 129.224 674.313 129.224C695.896 129.224 709.67 142.744 709.67 165.405C709.67 188.511 696.086 201.65 674.313 201.65ZM674.313 185.146C681.994 185.146 686.882 178.101 686.882 165.469C686.882 153.027 681.994 145.728 674.313 145.728C666.696 145.728 661.809 153.027 661.809 165.469C661.809 178.101 666.569 185.146 674.313 185.146ZM751.628 201.65C729.855 201.65 716.271 188.447 716.271 165.405C716.271 142.808 730.173 129.224 751.628 129.224C773.21 129.224 786.984 142.744 786.984 165.405C786.984 188.511 773.4 201.65 751.628 201.65ZM751.628 185.146C759.309 185.146 764.196 178.101 764.196 165.469C764.196 153.027 759.309 145.728 751.628 145.728C744.011 145.728 739.123 153.027 739.123 165.469C739.123 178.101 743.884 185.146 751.628 185.146ZM807.36 201.46C800.759 201.46 796.062 197.651 796.062 189.78V118.623C796.062 110.752 800.759 106.943 807.36 106.943C813.898 106.943 818.596 110.752 818.596 118.623V189.78C818.596 197.651 813.898 201.46 807.36 201.46Z" fill="white"/>
</g>
<g filter="url(#filter1_i_11_2)">
<path fill-rule="evenodd" clip-rule="evenodd" d="M196.64 23.6248C223.43 14.9257 249.177 -4.15223 276.896 0.811414C304.55 5.76347 333.001 24.1432 344.133 50.0364C355.7 76.941 331.657 107.289 335.177 136.378C338.23 161.6 360.354 180.99 363.041 206.254C366.139 235.391 371.125 270.393 351.761 292.318C332.132 314.542 296.4 311.122 267.058 314.928C243.469 317.988 220.395 313.648 196.64 312.44C173.98 311.288 150.607 316.484 129.575 307.937C108.159 299.233 93.8615 279.789 77.0767 263.85C58.1656 245.891 35.9061 230.925 24.0045 207.683C10.8856 182.063 -10.1642 148.396 5.6489 124.359C24.3503 95.9309 71.3859 108.557 100.608 91.2379C117.653 81.136 121.811 57.3174 138.016 45.9079C155.34 33.7101 176.507 30.1625 196.64 23.6248Z" fill="white"/>
</g>
<g filter="url(#filter2_ddi_11_2)">
<path d="M171.948 206C168.436 206 165.622 205.069 163.506 203.207C161.39 201.303 160.332 198.764 160.332 195.59C160.332 192.67 161.411 189.792 163.569 186.957L203.877 133.7V133.192H170.234C167.061 133.192 164.543 132.367 162.681 130.717C160.819 129.066 159.888 126.76 159.888 123.798C159.888 120.836 160.819 118.529 162.681 116.879C164.543 115.229 167.061 114.403 170.234 114.403H219.556C223.153 114.403 225.988 115.377 228.062 117.323C230.177 119.27 231.235 121.915 231.235 125.258C231.235 126.4 231.045 127.501 230.664 128.559C230.326 129.617 229.945 130.484 229.521 131.161C229.141 131.796 228.569 132.621 227.808 133.637L187.881 186.703V187.211H223.491C226.665 187.211 229.183 188.036 231.045 189.687C232.907 191.337 233.838 193.643 233.838 196.605C233.838 199.525 232.886 201.832 230.981 203.524C229.119 205.175 226.623 206 223.491 206H171.948ZM262.847 126.718C260.646 128.791 257.917 129.828 254.658 129.828C251.4 129.828 248.649 128.77 246.406 126.654C244.206 124.538 243.105 121.936 243.105 118.847C243.105 115.715 244.206 113.091 246.406 110.976C248.649 108.86 251.4 107.802 254.658 107.802C257.917 107.802 260.646 108.86 262.847 110.976C265.047 113.091 266.147 115.715 266.147 118.847C266.147 121.978 265.047 124.602 262.847 126.718ZM254.658 135.414C258.044 135.414 260.752 136.409 262.783 138.397C264.814 140.386 265.83 143.285 265.83 147.094V209.491C265.83 216.05 263.968 221.256 260.244 225.106C256.52 228.957 251.463 230.883 245.073 230.883H244.565C240.164 230.883 236.779 230.079 234.409 228.471C231.997 226.905 230.791 224.62 230.791 221.615C230.791 217.722 232.992 215.331 237.393 214.442L238.472 214.252C241.73 213.66 243.359 211.692 243.359 208.349V147.094C243.359 143.285 244.375 140.386 246.406 138.397C248.48 136.409 251.23 135.414 254.658 135.414Z" fill="#EC7EDA"/>
</g>
<defs>
<filter id="filter0_ddi_11_2" x="293.396" y="26.8164" width="665.2" height="284.834" filterUnits="userSpaceOnUse" color-interpolation-filters="sRGB">
<feFlood flood-opacity="0" result="BackgroundImageFix"/>
<feColorMatrix in="SourceAlpha" type="matrix" values="0 0 0 0 0 0 0 0 0 0 0 0 0 0 0 0 0 0 127 0" result="hardAlpha"/>
<feOffset dx="-30"/>
<feGaussianBlur stdDeviation="40"/>
<feColorMatrix type="matrix" values="0 0 0 0 0.791667 0 0 0 0 0.323264 0 0 0 0 0.716388 0 0 0 1 0"/>
<feBlend mode="normal" in2="BackgroundImageFix" result="effect1_dropShadow_11_2"/>
<feColorMatrix in="SourceAlpha" type="matrix" values="0 0 0 0 0 0 0 0 0 0 0 0 0 0 0 0 0 0 127 0" result="hardAlpha"/>
<feOffset dx="50" dy="20"/>
<feGaussianBlur stdDeviation="45"/>
<feComposite in2="hardAlpha" operator="out"/>
<feColorMatrix type="matrix" values="0 0 0 0 0.250469 0 0 0 0 0.827501 0 0 0 0 0.954167 0 0 0 1 0"/>
<feBlend mode="normal" in2="effect1_dropShadow_11_2" result="effect2_dropShadow_11_2"/>
<feBlend mode="normal" in="SourceGraphic" in2="effect2_dropShadow_11_2" result="shape"/>
<feColorMatrix in="SourceAlpha" type="matrix" values="0 0 0 0 0 0 0 0 0 0 0 0 0 0 0 0 0 0 127 0" result="hardAlpha"/>
<feOffset dy="4"/>
<feGaussianBlur stdDeviation="2"/>
<feComposite in2="hardAlpha" operator="arithmetic" k2="-1" k3="1"/>
<feColorMatrix type="matrix" values="0 0 0 0 0 0 0 0 0 0 0 0 0 0 0 0 0 0 0.24 0"/>
<feBlend mode="normal" in2="shape" result="effect3_innerShadow_11_2"/>
</filter>
<filter id="filter1_i_11_2" x="0" y="0" width="366" height="320" filterUnits="userSpaceOnUse" color-interpolation-filters="sRGB">
<feFlood flood-opacity="0" result="BackgroundImageFix"/>
<feBlend mode="normal" in="SourceGraphic" in2="BackgroundImageFix" result="shape"/>
<feColorMatrix in="SourceAlpha" type="matrix" values="0 0 0 0 0 0 0 0 0 0 0 0 0 0 0 0 0 0 127 0" result="hardAlpha"/>
<feOffset dy="4"/>
<feGaussianBlur stdDeviation="2"/>
<feComposite in2="hardAlpha" operator="arithmetic" k2="-1" k3="1"/>
<feColorMatrix type="matrix" values="0 0 0 0 0 0 0 0 0 0 0 0 0 0 0 0 0 0 0.25 0"/>
<feBlend mode="normal" in2="shape" result="effect1_innerShadow_11_2"/>
</filter>
<filter id="filter2_ddi_11_2" x="49.8877" y="27.8018" width="356.26" height="313.081" filterUnits="userSpaceOnUse" color-interpolation-filters="sRGB">
<feFlood flood-opacity="0" result="BackgroundImageFix"/>
<feColorMatrix in="SourceAlpha" type="matrix" values="0 0 0 0 0 0 0 0 0 0 0 0 0 0 0 0 0 0 127 0" result="hardAlpha"/>
<feOffset dx="-30"/>
<feGaussianBlur stdDeviation="40"/>
<feColorMatrix type="matrix" values="0 0 0 0 0.791667 0 0 0 0 0.323264 0 0 0 0 0.716388 0 0 0 1 0"/>
<feBlend mode="normal" in2="BackgroundImageFix" result="effect1_dropShadow_11_2"/>
<feColorMatrix in="SourceAlpha" type="matrix" values="0 0 0 0 0 0 0 0 0 0 0 0 0 0 0 0 0 0 127 0" result="hardAlpha"/>
<feOffset dx="50" dy="20"/>
<feGaussianBlur stdDeviation="45"/>
<feComposite in2="hardAlpha" operator="out"/>
<feColorMatrix type="matrix" values="0 0 0 0 0.250469 0 0 0 0 0.827501 0 0 0 0 0.954167 0 0 0 1 0"/>
<feBlend mode="normal" in2="effect1_dropShadow_11_2" result="effect2_dropShadow_11_2"/>
<feBlend mode="normal" in="SourceGraphic" in2="effect2_dropShadow_11_2" result="shape"/>
<feColorMatrix in="SourceAlpha" type="matrix" values="0 0 0 0 0 0 0 0 0 0 0 0 0 0 0 0 0 0 127 0" result="hardAlpha"/>
<feOffset dy="4"/>
<feGaussianBlur stdDeviation="2"/>
<feComposite in2="hardAlpha" operator="arithmetic" k2="-1" k3="1"/>
<feColorMatrix type="matrix" values="0 0 0 0 0 0 0 0 0 0 0 0 0 0 0 0 0 0 0.24 0"/>
<feBlend mode="normal" in2="shape" result="effect3_innerShadow_11_2"/>
</filter>
</defs>
</svg>
