<svg width="407" height="341" viewBox="0 0 407 341" fill="none" xmlns="http://www.w3.org/2000/svg">
<g filter="url(#filter0_i_0_1)">
<path fill-rule="evenodd" clip-rule="evenodd" d="M196.64 23.6248C223.43 14.9257 249.177 -4.15223 276.896 0.811414C304.55 5.76347 333.001 24.1432 344.133 50.0364C355.7 76.941 331.657 107.289 335.177 136.378C338.23 161.6 360.354 180.99 363.041 206.254C366.139 235.391 371.125 270.393 351.761 292.318C332.132 314.542 296.4 311.122 267.058 314.928C243.469 317.988 220.395 313.648 196.64 312.44C173.98 311.288 150.607 316.484 129.575 307.937C108.159 299.233 93.8615 279.789 77.0767 263.85C58.1656 245.891 35.9061 230.925 24.0045 207.683C10.8856 182.063 -10.1642 148.396 5.6489 124.359C24.3503 95.9309 71.3859 108.557 100.608 91.2379C117.653 81.136 121.811 57.3174 138.016 45.9079C155.34 33.7101 176.507 30.1625 196.64 23.6248Z" fill="white"/>
</g>
<g filter="url(#filter1_ddi_0_1)">
<path d="M171.948 206C168.436 206 165.622 205.069 163.506 203.207C161.39 201.303 160.332 198.764 160.332 195.59C160.332 192.67 161.411 189.792 163.569 186.957L203.877 133.7V133.192H170.234C167.061 133.192 164.543 132.367 162.681 130.717C160.819 129.066 159.888 126.76 159.888 123.798C159.888 120.836 160.819 118.529 162.681 116.879C164.543 115.229 167.061 114.403 170.234 114.403H219.556C223.153 114.403 225.988 115.377 228.062 117.323C230.177 119.27 231.235 121.915 231.235 125.258C231.235 126.4 231.045 127.501 230.664 128.559C230.326 129.617 229.945 130.484 229.521 131.161C229.141 131.796 228.569 132.621 227.808 133.637L187.881 186.703V187.211H223.491C226.665 187.211 229.183 188.036 231.045 189.687C232.907 191.337 233.838 193.643 233.838 196.605C233.838 199.525 232.886 201.832 230.981 203.524C229.119 205.175 226.623 206 223.491 206H171.948ZM262.847 126.718C260.646 128.791 257.917 129.828 254.658 129.828C251.4 129.828 248.649 128.77 246.406 126.654C244.206 124.538 243.105 121.936 243.105 118.847C243.105 115.715 244.206 113.091 246.406 110.976C248.649 108.86 251.4 107.802 254.658 107.802C257.917 107.802 260.646 108.86 262.847 110.976C265.047 113.091 266.147 115.715 266.147 118.847C266.147 121.978 265.047 124.602 262.847 126.718ZM254.658 135.414C258.044 135.414 260.752 136.409 262.783 138.397C264.814 140.386 265.83 143.285 265.83 147.094V209.491C265.83 216.05 263.968 221.256 260.244 225.106C256.52 228.957 251.463 230.883 245.073 230.883H244.565C240.164 230.883 236.779 230.079 234.409 228.471C231.997 226.905 230.791 224.62 230.791 221.615C230.791 217.722 232.992 215.331 237.393 214.442L238.472 214.252C241.73 213.66 243.359 211.692 243.359 208.349V147.094C243.359 143.285 244.375 140.386 246.406 138.397C248.48 136.409 251.23 135.414 254.658 135.414Z" fill="#EC7EDA"/>
</g>
<defs>
<filter id="filter0_i_0_1" x="0" y="0" width="366" height="320" filterUnits="userSpaceOnUse" color-interpolation-filters="sRGB">
<feFlood flood-opacity="0" result="BackgroundImageFix"/>
<feBlend mode="normal" in="SourceGraphic" in2="BackgroundImageFix" result="shape"/>
<feColorMatrix in="SourceAlpha" type="matrix" values="0 0 0 0 0 0 0 0 0 0 0 0 0 0 0 0 0 0 127 0" result="hardAlpha"/>
<feOffset dy="4"/>
<feGaussianBlur stdDeviation="2"/>
<feComposite in2="hardAlpha" operator="arithmetic" k2="-1" k3="1"/>
<feColorMatrix type="matrix" values="0 0 0 0 0 0 0 0 0 0 0 0 0 0 0 0 0 0 0.25 0"/>
<feBlend mode="normal" in2="shape" result="effect1_innerShadow_0_1"/>
</filter>
<filter id="filter1_ddi_0_1" x="49.8877" y="27.8018" width="356.26" height="313.081" filterUnits="userSpaceOnUse" color-interpolation-filters="sRGB">
<feFlood flood-opacity="0" result="BackgroundImageFix"/>
<feColorMatrix in="SourceAlpha" type="matrix" values="0 0 0 0 0 0 0 0 0 0 0 0 0 0 0 0 0 0 127 0" result="hardAlpha"/>
<feOffset dx="-30"/>
<feGaussianBlur stdDeviation="40"/>
<feColorMatrix type="matrix" values="0 0 0 0 0.791667 0 0 0 0 0.323264 0 0 0 0 0.716388 0 0 0 1 0"/>
<feBlend mode="normal" in2="BackgroundImageFix" result="effect1_dropShadow_0_1"/>
<feColorMatrix in="SourceAlpha" type="matrix" values="0 0 0 0 0 0 0 0 0 0 0 0 0 0 0 0 0 0 127 0" result="hardAlpha"/>
<feOffset dx="50" dy="20"/>
<feGaussianBlur stdDeviation="45"/>
<feComposite in2="hardAlpha" operator="out"/>
<feColorMatrix type="matrix" values="0 0 0 0 0.250469 0 0 0 0 0.827501 0 0 0 0 0.954167 0 0 0 1 0"/>
<feBlend mode="normal" in2="effect1_dropShadow_0_1" result="effect2_dropShadow_0_1"/>
<feBlend mode="normal" in="SourceGraphic" in2="effect2_dropShadow_0_1" result="shape"/>
<feColorMatrix in="SourceAlpha" type="matrix" values="0 0 0 0 0 0 0 0 0 0 0 0 0 0 0 0 0 0 127 0" result="hardAlpha"/>
<feOffset dy="4"/>
<feGaussianBlur stdDeviation="2"/>
<feComposite in2="hardAlpha" operator="arithmetic" k2="-1" k3="1"/>
<feColorMatrix type="matrix" values="0 0 0 0 0 0 0 0 0 0 0 0 0 0 0 0 0 0 0.24 0"/>
<feBlend mode="normal" in2="shape" result="effect3_innerShadow_0_1"/>
</filter>
</defs>
</svg>
